<svg xmlns="http://www.w3.org/2000/svg" viewBox="0 0 90 62" width="90" height="62">
	<style>
		tspan { white-space:pre }
		.shp0 { fill: #f5c506 } 
	</style>
	<g id="mid_bar">
		<path id="-e-Shape 2" class="shp0" d="M67.75 62L20.47 62C9.72 62 1 53.31 1 42.59C1 33.79 6.92 26.44 14.98 24.06C14.96 23.76 14.91 23.48 14.91 23.18C14.91 15.52 21.13 9.32 28.81 9.32C30.35 9.32 31.8 9.63 33.19 10.09C37.24 4.6 43.71 1 51.06 1C61.64 1 70.45 8.37 72.71 18.23C82.6 20.49 90 29.27 90 39.82C90 52.07 80.04 62 67.75 62ZM51.06 39.82L51.06 23.18L39.94 23.18L39.94 39.82L31.42 39.82L45.5 53.85L59.58 39.82L51.06 39.82Z" />
	</g>
</svg>